<svg width="65" height="30" viewBox="0 0 65 30" fill="none" xmlns="http://www.w3.org/2000/svg">
<path fill-rule="evenodd" clip-rule="evenodd" d="M5.52186 23.7261C6.74238 23.9932 8.01633 24.1268 9.34371 24.1268C10.0374 24.1268 10.6999 24.0839 11.3309 23.9982V21.5214C11.3309 21.4684 11.288 21.4255 11.2351 21.4255H5.61774C5.56479 21.4255 5.52186 21.4684 5.52186 21.5214V23.7261ZM4.53748 23.4783V21.5214C4.53748 20.9248 5.02113 20.4411 5.61774 20.4411H6.64652C6.34722 20.3797 6.05608 20.3068 5.77308 20.2225C4.79859 19.9322 3.86275 19.4777 2.96556 18.8589C2.82267 18.8047 2.69429 18.721 2.58779 18.6153C2.14932 18.3742 1.75391 18.2536 1.40156 18.2536C1.02336 18.2536 0.689655 18.4316 0.400445 18.7875C0.133482 19.1212 0 19.5217 0 19.9889C0 20.6785 0.25584 21.2125 0.767519 21.5907C1.72414 22.3693 2.95884 22.9922 4.47163 23.4594L4.53748 23.4783ZM16.8273 21.4255C16.253 22.037 15.5454 22.5566 14.7044 22.9842V21.5214C14.7044 21.4684 14.7473 21.4255 14.8003 21.4255H16.8273ZM17.5895 20.4411H14.8003C14.2037 20.4411 13.72 20.9248 13.72 21.5214V23.415C13.2728 23.5801 12.8046 23.7165 12.3153 23.8242V21.5214C12.3153 21.0034 11.9508 20.5706 11.4642 20.4655C12.0576 20.3266 12.5632 20.1233 12.9811 19.8554C13.3287 19.6236 13.6067 19.3508 13.8151 19.0369H18.1491C18.1799 19.0369 18.2104 19.0356 18.2406 19.033C18.0869 19.5277 17.8698 19.9971 17.5895 20.4411ZM11.4515 14.7376C11.0355 14.5997 10.5671 14.4638 10.0463 14.3301V12.2312C10.0463 11.6346 9.56269 11.151 8.96608 11.151H3.34874C3.00479 11.151 2.69838 11.3117 2.50055 11.5622C2.09475 11.2329 1.75067 10.8716 1.4683 10.4783C1.30461 10.2503 1.16243 10.0062 1.04176 9.74594C1.05454 9.74639 1.06737 9.74662 1.08026 9.74662H6.6976C6.88122 9.74662 7.05413 9.7008 7.20555 9.61998C7.91786 9.88364 8.80855 10.1364 9.87764 10.3782C11.0912 10.6509 12.1627 10.9445 13.0921 11.259H12.5318C11.9352 11.259 11.4515 11.7427 11.4515 12.3393V14.7376ZM14.2161 18.0525C14.2604 17.8323 14.2825 17.599 14.2825 17.3526C14.2825 16.5072 13.871 15.8621 13.0478 15.4171C12.8706 15.3137 12.6666 15.2114 12.4359 15.1102V12.3393C12.4359 12.2863 12.4789 12.2434 12.5318 12.2434H15.4403C16.3191 12.7156 17.0121 13.2841 17.5195 13.9488C17.8367 14.3507 18.0786 14.8003 18.245 15.2977V17.9566C18.245 18.0096 18.2021 18.0525 18.1491 18.0525H14.2161ZM9.01001 14.0823L9.06196 14.094V12.2312C9.06196 12.1783 9.01903 12.1354 8.96608 12.1354H3.34874C3.34115 12.1354 3.33377 12.1362 3.32668 12.1379C3.60928 12.3076 3.91307 12.4663 4.23804 12.614C5.46162 13.1702 7.05228 13.6596 9.01001 14.0823ZM9.18204 3.44726C8.67593 3.46991 8.20787 3.53061 7.77785 3.62936V3.04902C7.77785 2.45241 7.2942 1.96876 6.69759 1.96876L3.15984 1.96876C3.6836 1.56756 4.2766 1.22276 4.93882 0.934371C6.34038 0.311457 7.90879 0 9.64405 0C12.8254 0 15.4171 0.845383 17.4194 2.53615C17.7086 2.78087 17.9088 3.02558 18.02 3.2703C18.1535 3.49277 18.2202 3.78198 18.2202 4.13793C18.2202 4.60512 18.0756 5.01669 17.7864 5.37264C17.5533 5.66402 17.2778 5.82818 16.9599 5.86514V3.04902C16.9599 2.45241 16.4762 1.96876 15.8796 1.96876H10.2623C9.66569 1.96876 9.18204 2.45241 9.18204 3.04902V3.44726ZM15.9755 5.68363C15.829 5.61483 15.654 5.52229 15.4505 5.40601C14.5384 4.7386 13.6485 4.24917 12.7809 3.93771C12.0564 3.65174 11.1849 3.48831 10.1664 3.4474V3.04902C10.1664 2.99607 10.2094 2.95314 10.2623 2.95314H15.8796C15.9326 2.95314 15.9755 2.99607 15.9755 3.04902V5.68363ZM1.70189 3.47052C1.40681 3.88364 1.16764 4.31752 0.984385 4.77217L0.984385 8.66636C0.984385 8.71931 1.02731 8.76223 1.08026 8.76223H5.56669C5.01463 8.29389 4.7386 7.67571 4.7386 6.90767C4.7386 5.81757 5.17241 4.97219 6.04004 4.37152C6.27033 4.21033 6.52147 4.06998 6.79347 3.9505V3.04902C6.79347 2.99607 6.75055 2.95315 6.69759 2.95315H2.1099C1.9658 3.119 1.82979 3.29146 1.70189 3.47052ZM33.9338 7.50834C33.6446 7.68632 33.411 7.97553 33.233 8.37597L33.0587 8.76223H34.2447C34.2977 8.76223 34.3406 8.71931 34.3406 8.66635V7.30812C34.201 7.35698 34.0654 7.42372 33.9338 7.50834ZM32.6144 9.74661L31.9319 11.259H36.0298L36.7369 9.77753C36.8237 9.60398 36.8822 9.43514 36.9126 9.27099C36.7959 9.09845 36.7277 8.89037 36.7277 8.66636V8.21593C36.6244 8.04184 36.4828 7.88384 36.3031 7.74193C36.0074 7.47909 35.6814 7.31329 35.325 7.24454V8.66635C35.325 9.26296 34.8414 9.74661 34.2447 9.74661H32.6144ZM31.4876 12.2434L30.7985 13.7704V17.9566C30.7985 18.0096 30.8414 18.0525 30.8944 18.0525H32.7875L35.56 12.2434H31.4876ZM28.5945 18.6541L29.8141 15.9517V17.9566C29.8141 18.5532 30.2978 19.0369 30.8944 19.0369H32.3177L30.6784 22.4715V21.5214C30.6784 20.9248 30.1948 20.4411 29.5982 20.4411H25.3103L24.5835 18.9288H27.3312C27.8219 18.9288 28.2361 18.6017 28.3678 18.1536L28.5945 18.6541ZM28.4051 27.2346L29.694 24.534V21.5214C29.694 21.4684 29.6511 21.4255 29.5982 21.4255H25.7834L26.3921 22.6919L24.2319 27.2346H28.4051ZM23.9808 28.219C23.9621 28.219 23.9435 28.2185 23.925 28.2176C23.9234 28.2448 23.9227 28.2717 23.9227 28.2981C23.9227 28.7875 24.1118 29.188 24.49 29.4994C24.8904 29.8331 25.3465 30 25.8582 30C26.659 30 27.2486 29.6218 27.6268 28.8654L27.9353 28.219H23.9808ZM27.4271 16.0773L25.6411 12.1354H21.7138C21.6609 12.1354 21.618 12.1783 21.618 12.2312V12.7587L24.1104 17.9444H27.3312C27.3841 17.9444 27.4271 17.9015 27.4271 17.8486V16.0773ZM24.5588 9.74661L25.1951 11.151H21.7138C21.4317 11.151 21.1748 11.2591 20.9824 11.4363L20.1852 9.77753C20.1801 9.76729 20.1751 9.75699 20.1702 9.74661H24.5588ZM43.5517 9.73929C44.0887 9.67668 44.5055 9.22019 44.5055 8.66635V8.54909C44.8132 8.26127 45.1532 8.01447 45.5256 7.80868C45.6514 7.74093 45.7798 7.6781 45.9107 7.62017V8.66636C45.9107 9.26297 46.3944 9.74661 46.991 9.74661H52.6083C52.8004 9.74661 52.9808 9.69647 53.1371 9.60857C53.2328 9.78864 53.3207 9.97845 53.401 10.178C53.8055 9.4057 54.3696 8.76261 55.0933 8.24869V8.66636C55.0933 9.26297 55.5769 9.74661 56.1735 9.74661H61.7909C62.3759 9.74661 62.8523 9.28159 62.8706 8.70103L62.8782 8.70968C63.4259 9.30832 63.8168 10.1221 64.0509 11.151H59.4237C59 10.658 58.3606 10.4116 57.5055 10.4116C56.5453 10.4116 55.7577 10.705 55.1427 11.292C55.0576 11.2704 54.9685 11.259 54.8768 11.259H49.2595C49.2193 11.259 49.1796 11.2612 49.1405 11.2655C49.126 11.2474 49.1112 11.2297 49.0962 11.2125C48.6735 10.6785 48.0172 10.4116 47.1273 10.4116C46.2473 10.4116 45.5123 10.658 44.9223 11.151H40.0769C39.8292 11.151 39.601 11.2343 39.4188 11.3745V9.74661H43.4253C43.447 9.74661 43.4686 9.74597 43.49 9.74471V9.84427C43.5103 9.80894 43.5309 9.77395 43.5517 9.73929ZM49.7636 18.0525V13.8153C49.7636 13.2019 49.7077 12.6779 49.5958 12.2434H54.4287C54.0995 12.8813 53.9349 13.6611 53.9349 14.5829V18.0525H49.7636ZM49.7636 19.0369V22.0245C49.7636 22.6696 49.9638 23.1702 50.3643 23.5261C50.3916 23.5489 50.4194 23.5709 50.4477 23.5922V21.5214C50.4477 20.9248 50.9314 20.4411 51.528 20.4411H53.9349V19.0369H49.7636ZM53.9349 21.4255H51.528C51.475 21.4255 51.4321 21.4684 51.4321 21.5214V23.9951C51.5704 24.0162 51.715 24.0267 51.8659 24.0267C52.4666 24.0267 52.956 23.8598 53.3342 23.5261C53.7347 23.1702 53.9349 22.6696 53.9349 22.0245V21.4255ZM64.0594 18.9288C64.1468 18.9288 64.2317 18.9185 64.3131 18.8989V20.4411H60.711C60.5021 20.4411 60.3071 20.5004 60.1418 20.6031V18.9288H64.0594ZM60.711 21.4255H64.3131V22.0245C64.3131 22.6696 64.1129 23.1702 63.7124 23.5261C63.3342 23.8598 62.8337 24.0267 62.2108 24.0267C61.6101 24.0267 61.1095 23.8598 60.7091 23.5261C60.6764 23.4953 60.6451 23.4634 60.6151 23.4305V21.5214C60.6151 21.4684 60.6581 21.4255 60.711 21.4255ZM64.0594 17.9444H60.1418V13.8153C60.1418 13.1502 60.0761 12.5902 59.9445 12.1354H64.0594C64.1123 12.1354 64.1552 12.1783 64.1552 12.2312V17.8486C64.1552 17.9015 64.1123 17.9444 64.0594 17.9444ZM39.4188 18.7053V20.6496C39.6869 20.8462 39.861 21.1635 39.861 21.5214V23.3951C39.9001 23.4408 39.9418 23.4844 39.9861 23.5261C40.3361 23.8178 40.7626 23.982 41.2657 24.0188V21.5214C41.2657 20.9248 41.7493 20.4411 42.3459 20.4411H43.5901V18.9288H40.0769C39.8292 18.9288 39.601 18.8455 39.4188 18.7053ZM43.5901 21.4255V22.0245C43.5901 22.6696 43.3899 23.1702 42.9894 23.5261C42.7724 23.707 42.5259 23.8389 42.25 23.9217V21.5214C42.25 21.4684 42.293 21.4255 42.3459 21.4255H43.5901ZM44.123 12.1354C43.7677 12.7926 43.5901 13.6084 43.5901 14.5829V17.9444H40.0769C40.024 17.9444 39.9811 17.9015 39.9811 17.8486V12.2312C39.9811 12.1783 40.024 12.1354 40.0769 12.1354H44.123ZM46.8951 8.66636V7.28873C47.397 7.16817 47.9305 7.1079 48.4955 7.1079C50.2919 7.1079 51.6507 7.65934 52.572 8.76223H46.991C46.938 8.76223 46.8951 8.7193 46.8951 8.66636ZM56.0777 8.66636V7.67841C56.9038 7.29807 57.8135 7.1079 58.807 7.1079C60.0347 7.1079 61.0613 7.36197 61.8867 7.87013V8.66635C61.8867 8.71931 61.8438 8.76223 61.7909 8.76223H56.1735C56.1206 8.76223 56.0777 8.7193 56.0777 8.66636ZM39.4416 8.76223C39.5045 8.30617 39.6971 7.94383 40.0195 7.67519C40.4199 7.34149 40.9205 7.17464 41.5211 7.17464C42.0995 7.17464 42.5667 7.34149 42.9227 7.67519C43.2365 7.93363 43.4201 8.29164 43.4735 8.7492C43.4594 8.75748 43.4429 8.76223 43.4253 8.76223H39.4416ZM20.6524 7.70856C20.2997 8.00557 20.0941 8.3568 20.0357 8.76223H24.1128L23.9227 8.3426C23.7447 7.94216 23.5 7.65295 23.1885 7.47497C22.8771 7.27475 22.5322 7.17464 22.154 7.17464C21.5979 7.17464 21.0973 7.35261 20.6524 7.70856Z" fill="white"/>
</svg>
