<svg width="196" height="92" viewBox="0 0 196 92" fill="none" xmlns="http://www.w3.org/2000/svg">
<path fill-rule="evenodd" clip-rule="evenodd" d="M16.8272 72.3071C20.5472 73.1214 24.4301 73.5286 28.4758 73.5286C30.5896 73.5286 32.6079 73.398 34.5309 73.1369V65.5885C34.5309 65.4271 34.4001 65.2963 34.2387 65.2963H17.1193C16.958 65.2963 16.8272 65.4271 16.8272 65.5885V72.3071ZM13.8272 71.552V65.5885C13.8272 63.7703 15.3011 62.2963 17.1193 62.2963H20.2563C19.344 62.1089 18.4566 61.8867 17.594 61.6298C14.624 60.7451 11.7718 59.3598 9.03737 57.4739C8.60231 57.3087 8.21136 57.0539 7.88703 56.7321C6.55055 55.9971 5.34533 55.6295 4.27137 55.6295C3.11878 55.6295 2.10179 56.1719 1.22039 57.2567C0.406797 58.2737 0 59.4941 0 60.9179C0 63.0197 0.779694 64.6469 2.33908 65.7995C5.25446 68.1724 9.01734 70.0708 13.6277 71.4946C13.6941 71.5139 13.7606 71.533 13.8272 71.552ZM51.2828 65.2963C49.532 67.1604 47.3746 68.7441 44.8107 70.0475V65.5885C44.8107 65.4271 44.9415 65.2963 45.1029 65.2963H51.2828ZM53.6055 62.2963H45.1029C43.2847 62.2963 41.8107 63.7703 41.8107 65.5885V71.3602C40.448 71.8632 39.0214 72.2786 37.5309 72.6066V65.5885C37.5309 64.01 36.42 62.691 34.9374 62.3706C36.7461 61.9474 38.2873 61.3276 39.561 60.5111C40.6206 59.8047 41.4678 58.9732 42.1028 58.0165H55.3086C55.4034 58.0165 55.4972 58.0125 55.5899 58.0046C55.1214 59.5124 54.4599 60.9429 53.6055 62.2963ZM34.8971 44.9134C33.6299 44.4932 32.2033 44.0796 30.6173 43.6724V37.2757C30.6173 35.4575 29.1433 33.9835 27.3251 33.9835H10.2058C9.15747 33.9835 8.22361 34.4735 7.62069 35.2369C6.38397 34.2333 5.33533 33.1322 4.47477 31.9336C3.97592 31.2388 3.54262 30.4948 3.17486 29.7017C3.2138 29.703 3.25291 29.7037 3.29219 29.7037H20.4115C20.9711 29.7037 21.4981 29.5641 21.9596 29.3178C24.1304 30.1213 26.8449 30.8915 30.103 31.6285C33.8013 32.4596 37.0667 33.3543 39.8991 34.3128H38.1893C36.3711 34.3128 34.8971 35.7867 34.8971 37.6049V44.9134ZM43.3248 55.0165C43.4598 54.3453 43.5273 53.6344 43.5273 52.8836C43.5273 50.3073 42.273 48.3411 39.7644 46.9851C39.2236 46.6696 38.6011 46.3574 37.8971 46.0485V37.6049C37.8971 37.4436 38.0279 37.3128 38.1893 37.3128H47.0556C49.7338 38.7518 51.846 40.4843 53.3921 42.5103C54.3574 43.733 55.0936 45.1007 55.6008 46.6135V54.7243C55.6008 54.8856 55.47 55.0165 55.3086 55.0165H43.3248ZM27.4588 42.9171L27.6173 42.9526V37.2757C27.6173 37.1144 27.4865 36.9835 27.3251 36.9835H10.2058C10.1825 36.9835 10.16 36.9863 10.1383 36.9914C10.9996 37.5085 11.9254 37.9922 12.9158 38.4423C16.6448 40.1373 21.4925 41.6289 27.4588 42.9171ZM27.9835 10.5058C26.4409 10.5748 25.0143 10.7598 23.7037 11.0608V9.29218C23.7037 7.47396 22.2297 6 20.4115 6H9.62986C11.2261 4.77728 13.0333 3.72647 15.0515 2.84758C19.3229 0.949192 24.1027 0 29.3911 0C39.0864 0 46.9851 2.57638 53.087 7.72915C53.9684 8.47494 54.5786 9.22074 54.9176 9.96653C55.3244 10.6445 55.5278 11.5259 55.5278 12.6107C55.5278 14.0345 55.0871 15.2888 54.2057 16.3736C53.4954 17.2615 52.6559 17.7618 51.6872 17.8745V9.29218C51.6872 7.47396 50.2133 6 48.3951 6H31.2757C29.4575 6 27.9835 7.47396 27.9835 9.29219V10.5058ZM48.6872 17.3216C48.2406 17.1119 47.7072 16.8298 47.0868 16.4753C44.307 14.4413 41.595 12.9497 38.9508 12.0005C36.7431 11.1291 34.0874 10.631 30.9835 10.5063V9.29219C30.9835 9.13081 31.1144 9 31.2757 9H48.3951C48.5564 9 48.6872 9.13082 48.6872 9.29218V17.3216ZM5.18667 10.5767C4.28737 11.8357 3.55849 13.158 3 14.5436V26.4115C3 26.5729 3.13081 26.7037 3.29219 26.7037H16.965C15.2825 25.2764 14.4413 23.3924 14.4413 21.0518C14.4413 17.7296 15.7634 15.1532 18.4076 13.3226C19.1094 12.8313 19.8748 12.4036 20.7037 12.0395V9.29218C20.7037 9.13082 20.5729 9 20.4115 9H6.43011C5.99093 9.50545 5.57645 10.031 5.18667 10.5767ZM103.416 22.8823C102.535 23.4247 101.823 24.3061 101.281 25.5265L100.749 26.7037H104.362C104.523 26.7037 104.654 26.5729 104.654 26.4115V22.2728C104.23 22.4216 103.817 22.6248 103.416 22.8823ZM99.3954 29.7037L97.3154 34.3128H109.804L111.959 29.7979C112.224 29.2677 112.403 28.7518 112.495 28.2504C112.141 27.7253 111.934 27.0926 111.934 26.4115V25.0443C111.619 24.5116 111.187 24.0282 110.637 23.5942C109.735 22.7928 108.741 22.2873 107.654 22.078V26.4115C107.654 28.2297 106.18 29.7037 104.362 29.7037H99.3954ZM95.9615 37.3128L93.8642 41.96V54.7243C93.8642 54.8856 93.995 55.0165 94.1564 55.0165H99.9229L108.372 37.3128H95.9615ZM87.1444 56.8499L90.8642 48.6075V54.7243C90.8642 56.5425 92.3382 58.0165 94.1564 58.0165H98.4911L93.4979 68.4783V65.5885C93.4979 63.7703 92.024 62.2963 90.2057 62.2963H77.1355L74.9203 57.6872H83.2922C84.7886 57.6872 86.0518 56.6889 86.4521 55.3219L87.1444 56.8499ZM86.5671 83L90.4979 74.764V65.5885C90.4979 65.4271 90.3671 65.2963 90.2057 65.2963H78.5774L80.4322 69.1555L73.8489 83H86.5671ZM73.0864 86C73.0285 86 72.9708 85.9985 72.9136 85.9955C72.9089 86.0786 72.9065 86.1604 72.9065 86.241C72.9065 87.7326 73.4828 88.953 74.6354 89.9022C75.8558 90.9192 77.2457 91.4277 78.805 91.4277C81.2458 91.4277 83.0425 90.2751 84.1951 87.9699L85.1353 86H73.0864ZM83.5844 48.9924L78.1434 36.9835H66.1728C66.0115 36.9835 65.8807 37.1144 65.8807 37.2757V38.8789L73.4785 54.6872H83.2922C83.4535 54.6872 83.5844 54.5564 83.5844 54.3951V48.9924ZM74.8451 29.7037L76.7842 33.9835H66.1728C65.3137 33.9835 64.5314 34.3127 63.9451 34.8517L61.5162 29.7979C61.5006 29.7667 61.4853 29.7353 61.4705 29.7037H74.8451ZM132.727 29.6818C134.366 29.4926 135.638 28.1006 135.638 26.4115V26.0511C136.575 25.1752 137.61 24.4241 138.743 23.7976C139.127 23.5911 139.518 23.3995 139.918 23.2229V26.4115C139.918 28.2297 141.392 29.7037 143.21 29.7037H160.329C160.914 29.7037 161.464 29.551 161.94 29.2833C162.232 29.832 162.5 30.4103 162.744 31.0183C163.977 28.6649 165.696 26.7051 167.901 25.139V26.4115C167.901 28.2297 169.375 29.7037 171.193 29.7037H188.313C190.096 29.7037 191.548 28.2862 191.603 26.5166L191.627 26.5435C193.296 28.3679 194.487 30.8479 195.201 33.9835H181.099C179.808 32.4813 177.859 31.7302 175.253 31.7302C172.327 31.7302 169.927 32.6245 168.052 34.4131C167.793 34.3476 167.522 34.3128 167.243 34.3128H150.123C150.001 34.3128 149.879 34.3195 149.76 34.3326C149.716 34.2775 149.671 34.2236 149.625 34.171C148.337 32.5438 146.337 31.7302 143.625 31.7302C140.943 31.7302 138.703 32.4813 136.905 33.9835H122.14C121.384 33.9835 120.688 34.2382 120.132 34.6663V29.7037H132.346C132.411 29.7037 132.475 29.7018 132.54 29.6981V30.0013C132.601 29.8938 132.664 29.7873 132.727 29.6818ZM151.659 55.0165V42.1035C151.659 40.2339 151.489 38.637 151.148 37.3128H165.877C164.873 39.2569 164.372 41.6335 164.372 44.4426V55.0165H151.659ZM151.659 58.0165V67.1216C151.659 69.0877 152.269 70.6132 153.49 71.698C153.573 71.7677 153.658 71.835 153.745 71.8999V65.5885C153.745 63.7703 155.219 62.2963 157.037 62.2963H164.372V58.0165H151.659ZM164.372 65.2963H157.037C156.876 65.2963 156.745 65.4271 156.745 65.5885V73.1273C157.166 73.1914 157.606 73.2235 158.066 73.2235C159.897 73.2235 161.388 72.715 162.541 71.698C163.761 70.6132 164.372 69.0877 164.372 67.1216V65.2963ZM195.226 57.6872C195.493 57.6872 195.752 57.6556 196 57.5958V62.2963H185.021C184.385 62.2963 183.791 62.4766 183.288 62.7888V57.6872H195.226ZM185.021 65.2963H196V67.1216C196 69.0877 195.39 70.6132 194.169 71.698C193.017 72.715 191.491 73.2235 189.593 73.2235C187.762 73.2235 186.237 72.715 185.016 71.698C184.916 71.6035 184.82 71.5057 184.728 71.4045V65.5885C184.728 65.4271 184.859 65.2963 185.021 65.2963ZM195.226 54.6872H183.288V42.1035C183.288 40.0762 183.087 38.3696 182.686 36.9835H195.226C195.388 36.9835 195.519 37.1144 195.519 37.2757V54.3951C195.519 54.5564 195.388 54.6872 195.226 54.6872ZM120.132 57.0045V62.9305C120.95 63.5295 121.481 64.497 121.481 65.5885V71.3005C121.6 71.439 121.727 71.5715 121.861 71.698C122.928 72.5871 124.228 73.0875 125.761 73.1994V65.5885C125.761 63.7703 127.235 62.2963 129.053 62.2963H132.845V57.6872H122.14C121.384 57.6872 120.688 57.4326 120.132 57.0045ZM132.845 65.2963V67.1216C132.845 69.0877 132.235 70.6132 131.014 71.698C130.353 72.2491 129.602 72.6509 128.761 72.9034V65.5885C128.761 65.4271 128.892 65.2963 129.053 65.2963H132.845ZM134.469 36.9835C133.386 38.9866 132.845 41.4729 132.845 44.4426V54.6872H122.14C121.979 54.6872 121.848 54.5564 121.848 54.3951V37.2757C121.848 37.1144 121.979 36.9835 122.14 36.9835H134.469ZM142.918 26.4115V22.2129C144.447 21.8456 146.073 21.6619 147.795 21.6619C153.269 21.6619 157.41 23.3425 160.218 26.7037H143.21C143.049 26.7037 142.918 26.5729 142.918 26.4115ZM170.901 26.4115V23.4009C173.419 22.2416 176.192 21.6619 179.22 21.6619C182.961 21.6619 186.089 22.4362 188.605 23.9846V26.4115C188.605 26.5729 188.474 26.7037 188.313 26.7037H171.193C171.032 26.7037 170.901 26.5729 170.901 26.4115ZM120.202 26.7037C120.393 25.3138 120.98 24.2095 121.963 23.3908C123.183 22.3738 124.709 21.8654 126.539 21.8654C128.302 21.8654 129.726 22.3738 130.811 23.3908C131.768 24.1788 132.327 25.2704 132.49 26.6658C132.447 26.6899 132.398 26.7037 132.346 26.7037H120.202ZM62.94 23.4925C61.8651 24.3977 61.2386 25.4681 61.0606 26.7037H73.4859L72.9065 25.4248C72.3641 24.2044 71.6183 23.323 70.6691 22.7806C69.7199 22.1705 68.669 21.8654 67.5164 21.8654C65.8214 21.8654 64.2959 22.4077 62.94 23.4925Z" fill="white"/>
</svg>
